<svg viewBox="0 0 512 512" xmlns="http://www.w3.org/2000/svg">
  <g id="favicon">
    <path fill="#ffd480" d="M256 382.21H0V512h512V382.21z"/>
    <path fill="#fabe2c" d="M256 382.21h256V512H256z"/>
    <path fill="#ff6a4d" d="M256 0H0v382.21L68.79 451H443.2L512 382.21V0z"/>
    <path fill="#e64d2e" d="M512 382.21V0H256v451h187.21z"/>
    <path fill="#fabe2c" d="M380.5 128.5c-36.6-24.6-80.55-36.9-124.5-36.9s-87.9 12.3-124.5 36.9l-12.3 8.4 33.6 50.7h206.4l33.6-50.7z"/>
    <path fill="#ff9100" d="M392.8 136.9l-12.3-8.4c-36.6-24.6-80.55-36.9-124.5-36.9v96h103.2z"/>
    <path fill="#ffd480" d="M256 151c-39 0-75 13.8-103.2 36.6L256 343l103.2-155.4A163.9 163.9 0 00256 151z"/>
    <path fill="#fabe2c" d="M256 151v192l103.2-155.4A163.9 163.9 0 00256 151z"/>
    <path fill="#f2f9ff" d="M61 61h60v30H61z"/>
    <path fill="#dfe7f4" d="M391 61h60v30h-60z"/>
    <path fill="#e64d2e" d="M256 361H121v30h270v-30z"/>
    <path fill="#cd0000" d="M256 361h135v30H256z"/>
    <path fill="#fabe2c" d="M256 181h-15v30h30v-30z"/>
    <path fill="#ff9100" d="M256 181h15v30h-15z"/>
  </g>
  <symbol viewBox="0 0 512 512" id="icon">
    <path fill="#ffd480" d="M256 382.21H0V512h512V382.21z"/>
    <path fill="#fabe2c" d="M256 382.21h256V512H256z"/>
    <path fill="#ff6a4d" d="M256 0H0v382.21L68.79 451H443.2L512 382.21V0z"/>
    <path fill="#e64d2e" d="M512 382.21V0H256v451h187.21z"/>
    <path fill="#fabe2c" d="M380.5 128.5c-36.6-24.6-80.55-36.9-124.5-36.9s-87.9 12.3-124.5 36.9l-12.3 8.4 33.6 50.7h206.4l33.6-50.7z"/>
    <path fill="#ff9100" d="M392.8 136.9l-12.3-8.4c-36.6-24.6-80.55-36.9-124.5-36.9v96h103.2z"/>
    <path fill="#ffd480" d="M256 151c-39 0-75 13.8-103.2 36.6L256 343l103.2-155.4A163.9 163.9 0 00256 151z"/>
    <path fill="#fabe2c" d="M256 151v192l103.2-155.4A163.9 163.9 0 00256 151z"/>
    <path fill="#f2f9ff" d="M61 61h60v30H61z"/>
    <path fill="#dfe7f4" d="M391 61h60v30h-60z"/>
    <path fill="#e64d2e" d="M256 361H121v30h270v-30z"/>
    <path fill="#cd0000" d="M256 361h135v30H256z"/>
    <path fill="#fabe2c" d="M256 181h-15v30h30v-30z"/>
    <path fill="#ff9100" d="M256 181h15v30h-15z"/>
  </symbol>
</svg>
